<svg id="Layer_1" data-name="Layer 1" xmlns="http://www.w3.org/2000/svg" viewBox="0 0 500 500"><defs><style>.cls-1{fill:#c4c4c4;}</style></defs><path class="cls-1" d="M67.74,348.58a3.08,3.08,0,0,1-3,3.07H43.24A3.13,3.13,0,0,1,40,348.58V152.43a3.29,3.29,0,0,1,3.25-2.82h21.5a3.24,3.24,0,0,1,3,2.82Z"/><path class="cls-1" d="M124,348.58a3.08,3.08,0,0,1-3,3.07H99.5a3.13,3.13,0,0,1-3.25-3.07V152.43a3.29,3.29,0,0,1,3.25-2.82H121a3.25,3.25,0,0,1,3,2.82V348.58Z"/><path class="cls-1" d="M180.25,348.58a3.08,3.08,0,0,1-3,3.07h-21.5a3.13,3.13,0,0,1-3.25-3.07V152.43a3.29,3.29,0,0,1,3.25-2.82h21.5a3.24,3.24,0,0,1,3,2.82Z"/><path class="cls-1" d="M236.75,348.58a3.07,3.07,0,0,1-3,3.07h-21.5a3.13,3.13,0,0,1-3.25-3.07V152.43a3.29,3.29,0,0,1,3.25-2.82h21.5a3.24,3.24,0,0,1,3,2.82Z"/><path class="cls-1" d="M458,149.34a3.1,3.1,0,0,1,3,3.09v22.11a3.15,3.15,0,0,1-3,3.34H267.25c-1.25,0-2.74-1.54-2.74-3.34V152.43a3.27,3.27,0,0,1,2.74-3.09Z"/><path class="cls-1" d="M458,207.45a3.09,3.09,0,0,1,3,3.08v22.11a3.15,3.15,0,0,1-3,3.34H267.25c-1.25,0-2.74-1.54-2.74-3.34V210.53a3.26,3.26,0,0,1,2.74-3.08Z"/><path class="cls-1" d="M458,265.28a3.09,3.09,0,0,1,3,3.09v22.1a3.16,3.16,0,0,1-3,3.36H267.25c-1.25,0-2.74-1.54-2.74-3.36v-22.1a3.26,3.26,0,0,1,2.74-3.09Z"/><path class="cls-1" d="M458,323.12a3.09,3.09,0,0,1,3,3.08v22.12a3.15,3.15,0,0,1-3,3.34H267.25c-1.25,0-2.74-1.54-2.74-3.34V326.2a3.26,3.26,0,0,1,2.74-3.08Z"/></svg>