<?xml version="1.0" encoding="utf-8"?>
<!-- Generator: Adobe Illustrator 24.1.2, SVG Export Plug-In . SVG Version: 6.00 Build 0)  -->
<svg version="1.1" id="Laag_1" xmlns="http://www.w3.org/2000/svg" xmlns:xlink="http://www.w3.org/1999/xlink" x="0px" y="0px"
	 viewBox="0 0 48 48" style="enable-background:new 0 0 48 48;" xml:space="preserve">
<style type="text/css">
	.st0{fill:#8C9EFF;}
</style>
<path id="surface1" class="st0" d="M38.1,13.5c0,0-4-3.1-8.8-3.5l-0.4,0.9c4.3,1.1,6.2,2.6,8.4,4.4c-3.5-1.8-7.1-3.5-13.2-3.5
	s-9.7,1.7-13.2,3.5c2-1.8,4.4-3.5,8.4-4.4l-0.4-0.9c-4.9,0.4-8.8,3.5-8.8,3.5S5.4,20,4.7,32.8c4.5,5.3,11.4,5.3,11.4,5.3l1.4-1.9
	c-2.5-0.9-5.1-2.4-7.6-5.1c2.8,2.1,7.1,4.4,14.1,4.4S35.1,33.1,38,31c-2.4,2.8-5.1,4.3-7.6,5.1l1.4,1.9c0,0,6.9,0,11.4-5.3
	C42.6,20,38.1,13.5,38.1,13.5z M18.3,29.3c-1.7,0-3.1-1.6-3.1-3.5s1.4-3.5,3.1-3.5s3.1,1.6,3.1,3.5S20,29.3,18.3,29.3z M29.7,29.3
	c-1.7,0-3.1-1.6-3.1-3.5s1.4-3.5,3.1-3.5s3.1,1.6,3.1,3.5S31.4,29.3,29.7,29.3z"/>
</svg>
