<svg id="Layer_1" data-name="Layer 1" xmlns="http://www.w3.org/2000/svg" xmlns:xlink="http://www.w3.org/1999/xlink" viewBox="0 0 2350 2314.8"><defs><style>.cls-1{fill:#f7f7f7;}.cls-2{fill:url(#Naamloos_verloop_8);}</style><linearGradient id="Naamloos_verloop_8" x1="1175" y1="274.67" x2="1175" y2="2058.27" gradientUnits="userSpaceOnUse"><stop offset="0" stop-color="#a951b2"/><stop offset="1" stop-color="#4c2a78"/></linearGradient></defs><title>Tekengebied 1yeet</title><circle class="cls-1" cx="1175" cy="1175" r="895.32"/><path class="cls-2" d="M1175,312.53c-476.25,0-862,385.72-862,862,0,405.09,278,741.29,653,836.07-4.33-10.78-6.46-25.89-6.46-40.93V1823.07H851.78c-58.17,0-112.09-25.82-135.79-73.29-28-51.72-32.35-131.46-103.43-181-21.57-17.24-4.33-34.48,19.36-32.35,45.26,12.91,81.87,43.14,116.35,88.32s49.59,56,114.22,56c30.15,0,77.54-2.13,120.68-8.66,23.69-60.37,64.63-114.22,114.22-140-288.75-34.48-426.66-176.72-426.66-370.68,0-84.07,36.61-163.81,97-232.77-19.37-66.83-45.26-204.75,8.66-258.59,129.33,0,206.87,84.07,226.24,105.56,64.63-21.57,135.78-34.48,209-34.48,75.41,0,144.37,12.91,209,34.48C1440,754,1517.59,670,1646.85,670c51.71,51.72,28,191.76,6.45,258.59,60.38,66.83,94.86,148.7,94.86,232.77,0,194-135.79,336.2-422.33,366.35,79.74,40.94,135.78,157.29,135.78,243.48v196.31c0,6.46-2.12,12.91-2.12,19.37C1795.62,1870.53,2037,1551.64,2037,1174.5c0-476.25-385.72-862-862-862Z"/></svg>