<svg id="Laag_1" data-name="Laag 1" xmlns="http://www.w3.org/2000/svg" viewBox="0 0 2270 2500"><defs><style>.cls-1{fill:#8cc84b;}</style></defs><title>Tekengebied 1yeet</title><path class="cls-1" d="M1055.49,302.45c48-27.48,110.52-27.6,158.48,0Q1575.91,507,1937.87,711.34c45.38,25.56,75.73,76.06,75.27,128.34V1660c.33,54.45-33,106.16-80.89,131.14Q1571.52,1994.48,1210.93,2198c-49,28-112.77,25.85-160.23-4.46q-108.15-62.68-216.44-125.14c-14.73-8.78-31.34-15.77-41.74-30.06,9.19-12.4,25.64-13.94,39-19.35,30.1-9.57,57.74-24.94,85.39-39.84,7-4.79,15.52-3,22.23,1.33,61.65,35.35,122.76,71.73,184.62,106.74,13.2,7.62,26.56-2.5,37.84-8.79q354-200.07,708.25-399.68a23.43,23.43,0,0,0,12.86-23.06q.26-405.89.08-811.82a25.37,25.37,0,0,0-15.11-25.31q-359.49-202.46-718.81-405.14a25,25,0,0,0-28.23-.05Q761.21,616,401.91,818.7c-9.8,4.45-16.37,14.28-15.2,25.19q.06,405.89,0,811.86a23,23,0,0,0,13,22.77q95.91,54.39,192,108.4c36,19.41,80.31,30.93,120,16.07,35-12.57,59.62-48.33,58.95-85.55.33-269-.17-538.06.25-807C770,898.47,781.36,888.6,793,889.72c30.72-.2,61.49-.41,92.21.09,12.83-.29,21.65,12.57,20.07,24.6-.13,270.71.33,541.43-.21,812.15.08,72.15-29.56,150.65-96.29,186-82.22,42.59-183.84,33.56-265.06-7.28-70.31-35.09-137.41-76.51-206.48-114.11-48-24.84-81.18-76.75-80.84-131.16V839.68c-.51-53.37,31.05-104.78,77.84-130Q694.89,506.16,1055.49,302.45Z"/><path class="cls-1" d="M1265.26,870.66c104.87-6.75,217.14-4,311.51,47.66,73.07,39.59,113.57,122.68,114.86,203.86-2,11-13.48,17-23.94,16.24-30.42-.05-60.86.41-91.28-.21-12.91.5-20.41-11.41-22-22.82-8.75-38.84-29.93-77.3-66.48-96-56.12-28.09-121.19-26.68-182.38-26.09-44.67,2.37-92.71,6.24-130.56,32.51-29,19.9-37.88,60.07-27.51,92.42,9.78,23.22,36.59,30.72,58.53,37.63,126.39,33,260.31,29.76,384.28,73.26,51.33,17.74,101.54,52.21,119.11,106,23,72,12.9,158.11-38.34,215.94-41.55,47.58-102.08,73.47-162.44,87.54-80.31,17.91-163.65,18.36-245.2,10.41-76.69-8.74-156.49-28.89-215.69-81.14-50.62-44-75.34-112.44-72.89-178.54.59-11.16,11.7-19,22.4-18,30.64-.25,61.28-.33,91.92,0,12.24-.88,21.31,9.7,21.94,21.24,5.65,37,19.56,75.84,51.83,97.78,62.27,40.18,140.41,37.43,211.72,38.55,59.07-2.62,125.39-3.41,173.6-42.46,25.43-22.27,33-59.53,26.1-91.58-7.45-27.07-35.76-39.68-60.07-47.92-124.77-39.47-260.19-25.15-383.75-69.78-50.16-17.73-98.66-51.24-117.93-102.78-26.89-72.93-14.57-163.14,42-219,55.2-55.58,134.89-77,210.65-84.64Z"/></svg>