<?xml version="1.0" encoding="utf-8"?>
<!-- Generator: Adobe Illustrator 19.0.0, SVG Export Plug-In . SVG Version: 6.00 Build 0)  -->
<svg version="1.1" id="Layer_1" xmlns="http://www.w3.org/2000/svg" xmlns:xlink="http://www.w3.org/1999/xlink" x="0px" y="0px"
	 viewBox="0 0 500 500" style="enable-background:new 0 0 500 500;" xml:space="preserve">
<style type="text/css">
	.st0{fill:#5586A4;}
</style>
<g id="XMLID_1_">
	<path id="XMLID_2_" class="st0" d="M127.4,218.1c0.1-0.1,0.3-0.1,0.4-0.2c4.1-1.9,8.8-2.9,14.2-2.9c5.4,0,10.1,1,14.2,2.9
		c4.1,1.9,7.5,4.5,10.2,7.7c2.7,3.2,4.8,6.9,6.1,11.1c1.4,4.2,2,8.5,2,13s-0.7,8.9-2,13c-1.4,4.2-3.4,7.9-6.1,11.1
		c-2.7,3.2-6.1,5.8-10.2,7.6c-4.1,1.9-8.8,2.8-14.2,2.8c-5.4,0-10.1-0.9-14.2-2.8c-0.9-0.4-1.7-0.8-2.5-1.3
		c21.2,19.2,61.9,32.2,108.7,32.2c38.1,0,72.2-7.7,95-21.2c-24.9,22.7-69.4,38.7-120.2,38.6c-78.1,0-141.4-35.7-141.3-79.8
		c0-44,63.3-79.7,141.4-79.7c51,0,95.6,16,120.4,38.9c-22.8-13.6-57-21.5-95.2-21.5C188.7,187.7,149,199.9,127.4,218.1z
		 M119.8,259.6c0.9,3.2,2.3,6.2,4.2,8.8c1.9,2.6,4.4,4.7,7.3,6.3c3,1.6,6.5,2.4,10.7,2.4c4.1,0,7.7-0.8,10.7-2.4
		c3-1.6,5.4-3.7,7.3-6.3c1.9-2.6,3.3-5.5,4.2-8.8c0.9-3.2,1.3-6.5,1.3-9.9c0-3.3-0.4-6.6-1.3-9.9c-0.9-3.2-2.3-6.2-4.2-8.8
		c-1.9-2.6-4.4-4.7-7.3-6.3c-3-1.6-6.5-2.4-10.7-2.4c-4.1,0-7.7,0.8-10.7,2.4c-3,1.6-5.4,3.7-7.3,6.3c-1.9,2.6-3.3,5.5-4.2,8.8
		c-0.9,3.2-1.3,6.5-1.3,9.9C118.4,253,118.9,256.3,119.8,259.6z M188,240.6v5.7h0.1c1.2-2.3,3-4,5.5-5.1c2.5-1.1,5.3-1.6,8.3-1.6
		c3.3,0,6.2,0.6,8.7,1.8c2.5,1.2,4.5,2.8,6.2,4.9c1.6,2,2.9,4.4,3.7,7.1c0.8,2.7,1.3,5.5,1.3,8.5c0,3-0.4,5.8-1.2,8.5
		c-0.8,2.7-2,5-3.7,7c-1.6,2-3.7,3.5-6.2,4.7c-2.5,1.1-5.4,1.7-8.6,1.7c-1.1,0-2.2-0.1-3.5-0.3c-1.3-0.2-2.6-0.6-3.9-1.1
		c-1.3-0.5-2.5-1.2-3.6-2c-1.1-0.8-2.1-1.9-2.9-3.1H188v21.8h-7.2v-58.3H188z M213.4,255.6c-0.5-1.9-1.3-3.5-2.4-5
		c-1.1-1.5-2.5-2.6-4.2-3.5c-1.7-0.9-3.7-1.3-6-1.3c-2.4,0-4.4,0.5-6.1,1.4c-1.7,0.9-3,2.1-4.1,3.6c-1.1,1.5-1.8,3.2-2.3,5.1
		c-0.5,1.9-0.7,3.8-0.7,5.8c0,2.1,0.2,4.1,0.7,6c0.5,1.9,1.3,3.6,2.4,5.1c1.1,1.5,2.5,2.7,4.2,3.5c1.7,0.9,3.8,1.3,6.2,1.3
		c2.4,0,4.5-0.5,6.1-1.4c1.6-0.9,3-2.1,4-3.7c1-1.5,1.7-3.3,2.2-5.2c0.4-2,0.7-4,0.7-6C214.2,259.4,213.9,257.5,213.4,255.6z
		 M258.3,280.1c-3.2,2.4-7.3,3.6-12.2,3.6c-3.5,0-6.5-0.5-9-1.6c-2.5-1.1-4.7-2.6-6.4-4.6c-1.7-2-3-4.3-3.9-7
		c-0.9-2.7-1.4-5.7-1.5-8.9c0-3.2,0.5-6.1,1.5-8.8c1-2.7,2.4-5,4.2-6.9c1.8-2,4-3.5,6.4-4.6c2.5-1.1,5.2-1.6,8.2-1.6
		c3.9,0,7,0.8,9.6,2.3c2.5,1.6,4.6,3.5,6.1,5.9c1.5,2.4,2.6,5,3.2,7.8c0.6,2.8,0.8,5.5,0.7,8.1h-32.4c-0.1,1.8,0.2,3.6,0.7,5.3
		c0.5,1.7,1.3,3.1,2.4,4.4c1.1,1.3,2.5,2.3,4.3,3.1c1.7,0.8,3.8,1.1,6.1,1.1c3,0,5.5-0.7,7.4-2c1.9-1.4,3.2-3.4,3.8-6.2h7
		C263.6,274.1,261.5,277.7,258.3,280.1z M256.5,253c-0.6-1.5-1.5-2.7-2.6-3.8c-1.1-1.1-2.4-1.9-3.8-2.5c-1.5-0.6-3.1-0.9-4.9-0.9
		c-1.8,0-3.5,0.3-5,0.9c-1.5,0.6-2.7,1.5-3.8,2.6c-1.1,1.1-1.9,2.3-2.5,3.8c-0.6,1.4-1,3-1.1,4.6h24.8
		C257.5,256,257.2,254.5,256.5,253z M276.7,240.6v6.7h0.1c3-5.1,7.7-7.7,14.1-7.7c2.9,0,5.2,0.4,7.1,1.1c1.9,0.8,3.4,1.8,4.6,3.2
		c1.2,1.4,2,3,2.5,4.9c0.5,1.9,0.7,4,0.7,6.3v27.8h-7.2v-28.6c0-2.6-0.8-4.7-2.3-6.2c-1.6-1.5-3.7-2.3-6.5-2.3c-2.2,0-4.1,0.3-5.7,1
		c-1.6,0.7-2.9,1.6-4,2.8c-1.1,1.2-1.9,2.6-2.4,4.2c-0.5,1.6-0.8,3.4-0.8,5.3v23.8H270v-42.2H276.7z M355.4,282.4
		c-3.2,1.3-6.5,2-9.8,2c-5.2,0-9.9-0.9-14-2.7c-4.2-1.8-7.7-4.2-10.5-7.3c-2.9-3.1-5-6.7-6.6-10.9c-1.5-4.2-2.3-8.7-2.3-13.5
		c0-5,0.8-9.6,2.3-13.8c1.5-4.2,3.7-8,6.5-11.1c2.8-3.2,6.3-5.6,10.5-7.4c4.1-1.8,8.8-2.7,14-2.7c3.5,0,6.9,0.5,10.1,1.5
		c3.3,1,6.2,2.5,8.8,4.5c2.6,2,4.8,4.4,6.5,7.4c1.7,2.9,2.8,6.3,3.1,10h-14.3c-0.9-3.7-2.6-6.5-5.1-8.4c-2.5-1.9-5.6-2.8-9.2-2.8
		c-3.4,0-6.2,0.6-8.6,1.9s-4.2,3-5.7,5.1c-1.5,2.1-2.5,4.6-3.2,7.3c-0.7,2.7-1,5.6-1,8.5c0,2.8,0.3,5.5,1,8.1c0.7,2.6,1.7,5,3.2,7.1
		c1.5,2.1,3.4,3.8,5.7,5.1c2.3,1.3,5.2,1.9,8.6,1.9c4.9,0,8.8-1.2,11.5-3.7c2.7-2.4,4.3-6,4.7-10.6h-15V247h28.5v35.9h-9.5l-1.5-7.5
		C361.6,278.7,358.6,281.1,355.4,282.4z M399.4,216.5v54h33.1v12.3h-48v-66.3H399.4z"/>
</g>
</svg>
