<svg id="Laag_1" data-name="Laag 1" xmlns="http://www.w3.org/2000/svg" viewBox="0 0 2000 2000"><defs><style>.cls-1{fill:#e34e26;}.cls-2{fill:#ef662a;}.cls-3{fill:#fff;}.cls-4{fill:#ebebeb;}</style></defs><title>Tekengebied 1yeet</title><g id="Guides_to_delete" data-name="Guides to delete"><polygon class="cls-1" points="468.94 1589.42 350.71 263.21 1649.29 263.21 1530.92 1589.53 999.68 1736.79 468.94 1589.42"/><polygon class="cls-2" points="1000 371.61 1000 1624.14 1429.57 1505.07 1530.77 371.61 1000 371.61"/><polygon class="cls-3" points="592.61 534.29 636.46 1026.17 1200.23 1026.17 1181.31 1237.15 999.79 1286.22 818.61 1237.22 806.5 1101.75 643.23 1101.75 666.57 1362.89 999.75 1455.43 1333.35 1362.89 1378.08 863.53 785.23 863.53 770.34 696.96 1392.32 696.96 1392.82 696.96 1407.39 534.29 592.61 534.29"/><polygon class="cls-4" points="1000 534.29 592.61 534.29 636.46 1026.17 1000 1026.17 1000 863.53 785.23 863.53 770.34 696.96 1000 696.96 1000 534.29"/><polygon class="cls-4" points="1000 1286.15 999.79 1286.22 818.61 1237.22 806.5 1101.75 643.23 1101.75 666.57 1362.89 999.75 1455.43 1000 1455.36 1000 1286.15"/></g></svg>