<?xml version="1.0" encoding="utf-8"?>
<!-- Generator: Adobe Illustrator 19.0.0, SVG Export Plug-In . SVG Version: 6.00 Build 0)  -->
<svg version="1.1" id="Layer_1" xmlns="http://www.w3.org/2000/svg" xmlns:xlink="http://www.w3.org/1999/xlink" x="0px" y="0px"
	 viewBox="0 0 500 500" style="enable-background:new 0 0 500 500;" xml:space="preserve">
<style type="text/css">
	.st0{fill:#00C8FF;}
	.st1{fill:#001D26;}
</style>
<g id="XMLID_23_">
	<rect id="XMLID_26_" x="67.5" y="67.5" class="st0" width="365" height="365"/>
	<rect id="XMLID_27_" x="83.6" y="83.6" class="st1" width="332.9" height="332.9"/>
	<path id="XMLID_33_" class="st0" d="M156.2,155.7c0-1.3,0.2-1.8,1.3-1.8c8.2-0.3,24.4-0.5,40.8-0.5c42.3,0,58.5,24.6,58.7,53.8
		c0,39.9-29.8,55.1-61.5,55.1c-6,0-11.9,0-13.4,0v57c0,1.5-0.4,2-1.5,2h-22.9c-1.1,0-1.5-0.5-1.5-1.8V155.7z M182.1,237.9
		c1.7,0.3,5,0.5,14,0.5c17.1,0,33.5-4.9,33.5-30c0-20.1-11-30.4-31.3-30.4c-8.4,0-14.5,0.3-16.2,0.5V237.9z"/>
	<path id="XMLID_34_" class="st0" d="M310.9,219.1c-10.4,0-13.2,6.5-13.2,11.3c0,6,2.8,9.3,18.7,16.8c21.9,10.5,31.2,19.8,31.2,37.9
		c0,25.1-16.3,39.4-39.7,39.4c-11.2,0-25.4-1.1-34.4-7.6c-0.8-0.5-1.3-1.3-1.3-2.5v-23.1c0-1.3,0.8-1.8,1.5-1.3
		c11,8.3,23.3,10.6,34.4,10.6c9.8,0,13.2-6.5,13.2-12c0-6.5-2.4-10.3-17.6-17.6c-21.9-10.5-31-19.6-31-37.9
		c0-20.3,15.3-37.1,40.3-37.1c12.9,0,22.1,0.3,28,4.4c1.1,1,1.3,1.8,1.3,3.3v20.6c0,1.5-0.8,2.3-1.9,1.5
		C332.8,220.7,322,219.1,310.9,219.1z"/>
</g>
</svg>
