<svg id="Laag_1" data-name="Laag 1" xmlns="http://www.w3.org/2000/svg" xmlns:xlink="http://www.w3.org/1999/xlink" viewBox="0 0 256 255"><defs><style>.cls-1{fill:url(#Naamloos_verloop);}.cls-2{fill:url(#Naamloos_verloop_2);}</style><linearGradient id="Naamloos_verloop" x1="-550.81" y1="510.39" x2="-550.31" y2="509.9" gradientTransform="matrix(189.38, 0, 0, -189.81, 104364.56, 96924.62)" gradientUnits="userSpaceOnUse"><stop offset="0" stop-color="#387eb8"/><stop offset="1" stop-color="#366994"/></linearGradient><linearGradient id="Naamloos_verloop_2" x1="-550.85" y1="510.41" x2="-550.32" y2="509.9" gradientTransform="matrix(189.38, 0, 0, -189.81, 104430.56, 96988.89)" gradientUnits="userSpaceOnUse"><stop offset="0" stop-color="#ffe052"/><stop offset="1" stop-color="#ffc331"/></linearGradient></defs><title>Tekengebied 1yeet</title><path class="cls-1" d="M127.15,32.3c-48.38,0-45.36,21-45.36,21l0,21.73H128v6.53H63.5S32.55,78,32.55,126.85s27,47.09,27,47.09H75.69V151.29s-.86-27,26.59-27h45.8s25.72.41,25.72-24.87V57.6s3.91-25.3-46.65-25.3ZM101.69,46.92a8.31,8.31,0,1,1-8.3,8.31,8.3,8.3,0,0,1,8.3-8.31Z"/><path class="cls-2" d="M128.52,221.89c48.39,0,45.36-21,45.36-21l0-21.73H127.66v-6.53h64.51s31,3.51,31-45.31-27-47.08-27-47.08H180v22.65s.87,27-26.59,27H107.6s-25.73-.41-25.73,24.87v41.8S78,221.89,128.52,221.89ZM154,207.28a8.31,8.31,0,1,1,8.31-8.31,8.3,8.3,0,0,1-8.31,8.31Z"/></svg>