<?xml version="1.0" encoding="utf-8"?>
<!-- Generator: Adobe Illustrator 19.0.0, SVG Export Plug-In . SVG Version: 6.00 Build 0)  -->
<svg version="1.1" id="Layer_1" xmlns="http://www.w3.org/2000/svg" xmlns:xlink="http://www.w3.org/1999/xlink" x="0px" y="0px"
	 viewBox="0 0 500 500" style="enable-background:new 0 0 500 500;" xml:space="preserve">
<style type="text/css">
	.st0{fill:#D291FF;}
	.st1{fill:#1F0040;}
</style>
<g id="XMLID_26_">
	<rect id="XMLID_28_" x="67.5" y="67.5" class="st0" width="365" height="365"/>
	<rect id="XMLID_32_" x="83.6" y="83.6" class="st1" width="332.9" height="332.9"/>
	<path id="XMLID_35_" class="st0" d="M170.1,274.6l-13.2,44.9c-0.2,1.5-0.9,2.1-2.2,2.1h-22c-1.5,0-1.9-0.8-1.5-2.6
		c11.7-39.5,31.3-105.3,45.1-150c0.6-2.6,1.3-5.2,1.7-14.2c0-1,0.6-1.5,1.3-1.5h29.8c1.1,0,1.3,0.3,1.7,1.3
		c16,52.9,33.5,111.3,49.9,164.7c0.4,1.5,0,2.3-1.3,2.3h-24.2c-1.1,0-1.5-0.5-1.9-1.5l-13.8-45.4H170.1z M213.7,249.3
		c-4.3-17.3-14.9-52.1-19.2-70.2h-0.2c-3.2,17-12.1,46.2-18.6,70.2H213.7z"/>
	<path id="XMLID_38_" class="st0" d="M294.2,264.9c0.4,19.3,10.8,33,33,33c8.1,0,18.1-1.5,27.5-6.4c0.7-0.3,1.3,0,1.3,1.3v20.3
		c0,1.8-0.4,2.3-1.3,2.8c-8.6,5.1-18.9,6.9-33,7.1c-40.1,0-54.6-31.5-54.6-63.5c0-36.3,18.7-65,51.8-65c32.4,0,45.4,28.5,45.4,52.1
		c0,10.9-1.1,16-2,16.8c-2.6,1.3-11,1.5-23.1,1.5H294.2z M329.4,245.3c8.1,0,9.5-1,9.7-2c0-0.5,0-1.8,0-2.8
		c0-7.6-4.4-24.1-21.4-24.1c-14.3,0-21.8,12.7-23.6,29H329.4z"/>
</g>
</svg>
