<svg id="Layer_1" data-name="Layer 1" xmlns="http://www.w3.org/2000/svg" viewBox="0 0 500 500"><defs><style>.cls-1{fill:#0d528a;}.cls-2{fill:#f5792a;}</style></defs><title>Tekengebied 1</title><path class="cls-1" d="M252.5,259.61c.7-13.61,7.31-25.44,17.05-34a55.19,55.19,0,0,1,36.52-13.26,56.58,56.58,0,0,1,36.53,13.26,50,50,0,0,1,17,34,47.54,47.54,0,0,1-14.26,36.54,55.3,55.3,0,0,1-39,15.76,54.7,54.7,0,0,1-39-15.76c-10.09-9.67-15.65-22.57-15-36.54"/><path class="cls-2" d="M168,287.19c0,5.38,1.74,15.77,4.18,23.65a122.9,122.9,0,0,0,26.09,46.57,134.22,134.22,0,0,0,45.91,34,143.25,143.25,0,0,0,60.18,12.9,142.16,142.16,0,0,0,106.1-47.29,127.15,127.15,0,0,0,26.09-46.93A112.13,112.13,0,0,0,441.39,284a127.87,127.87,0,0,0-.7-25.79A124,124,0,0,0,424,211.25a130.23,130.23,0,0,0-30.62-34.75h0L270.24,79.06l-.34-.36c-8-6.45-21.57-6.45-30.62,0s-10.08,17.19-2.08,24h0l51.48,43H131.45c-12.87,0-25.39,8.6-27.83,19.7s6.26,20.78,19.83,20.78h79.31L60.83,298.3l-.69.36c-13.22,10.39-17.74,27.94-9.39,39,8.69,11.46,26.78,11.46,40.35,0l77.22-65.2c.7.71-.69,9.31-.35,14.68ZM366.6,316.57c-16,16.84-38.26,26.15-62.27,26.15-24.35,0-46.61-9.31-62.61-26.15A78.86,78.86,0,0,1,224.67,289a74.54,74.54,0,0,1,4.87-59.82,80,80,0,0,1,19.14-23.29,87.48,87.48,0,0,1,56-20.06,86.23,86.23,0,0,1,56,20.06,70.44,70.44,0,0,1,18.78,23.29,75.88,75.88,0,0,1,8.7,29,71.73,71.73,0,0,1-3.83,30.8,92.67,92.67,0,0,1-17.74,27.59"/></svg>