<?xml version="1.0" encoding="utf-8"?>
<!-- Generator: Adobe Illustrator 19.0.0, SVG Export Plug-In . SVG Version: 6.00 Build 0)  -->
<svg version="1.1" id="Layer_1" xmlns="http://www.w3.org/2000/svg" xmlns:xlink="http://www.w3.org/1999/xlink" x="0px" y="0px"
	 viewBox="0 0 500 500" style="enable-background:new 0 0 500 500;" xml:space="preserve">
<style type="text/css">
	.st0{fill:#FF7C00;}
	.st1{fill:#261300;}
</style>
<g id="XMLID_26_">
	<rect id="XMLID_28_" x="67.5" y="67.5" class="st0" width="365" height="365"/>
	<rect id="XMLID_32_" x="83.6" y="83.6" class="st1" width="332.9" height="332.9"/>
	<path id="XMLID_35_" class="st0" d="M193.6,275.3L180.5,319c-0.2,1.5-0.9,2-2.2,2h-22c-1.5,0-1.9-0.8-1.5-2.5
		c11.7-38.4,31.3-102.5,45.1-145.9c0.6-2.5,1.3-5,1.7-13.8c0-1,0.6-1.5,1.3-1.5h29.8c1.1,0,1.3,0.3,1.7,1.3
		c16,51.5,33.5,108.2,49.9,160.2c0.4,1.5,0,2.3-1.3,2.3h-24.2c-1.1,0-1.5-0.5-1.9-1.5l-13.8-44.2H193.6z M237.3,250.7
		c-4.3-16.8-14.9-50.7-19.2-68.3h-0.2c-3.2,16.6-12.1,44.9-18.6,68.3H237.3z"/>
	<path id="XMLID_38_" class="st0" d="M306.2,166.7c0-9.3,6.2-15.6,14.4-15.6c8.7,0,14,6.3,14,15.6c0,9.5-5.7,15.6-14.2,15.6
		C312,182.3,306.2,176.3,306.2,166.7z M307.7,200.9c0-1.5,0.4-2,1.5-2h22.5c1.3,0,1.7,0.3,1.7,2v118c0,1.3-0.4,2-1.7,2h-22.1
		c-1.3,0-1.9-0.5-1.9-2.3V200.9z"/>
</g>
</svg>
