<?xml version="1.0" encoding="utf-8"?>
<!-- Generator: Adobe Illustrator 19.0.0, SVG Export Plug-In . SVG Version: 6.00 Build 0)  -->
<svg version="1.1" id="Layer_1" xmlns="http://www.w3.org/2000/svg" xmlns:xlink="http://www.w3.org/1999/xlink" x="0px" y="0px"
	 viewBox="0 0 500 500" style="enable-background:new 0 0 500 500;" xml:space="preserve">
<style type="text/css">
	.st0{fill:#808080;}
	.st1{fill:#000080;}
	.st2{fill:#FFFFFF;}
</style>
<g id="XMLID_1_">
	<path id="XMLID_37_" class="st0" d="M346.9,100.2c0.1,0,0.2,0.1,0.2,0.1l2.3-3.5c-0.1-0.1-0.2-0.1-0.2-0.2L346.9,100.2L346.9,100.2
		z M319.4,85.7c4.8,2,9.4,4.2,14.1,6.7l2-3.7c-4.7-2.5-9.5-4.8-14.4-6.8L319.4,85.7L319.4,85.7z M289.9,76.1c5,1.2,10.1,2.5,15,4.1
		l1.3-4c-5.1-1.6-10.2-3-15.4-4.2L289.9,76.1L289.9,76.1z M259.1,71.8c5.2,0.3,10.3,0.8,15.5,1.5l0.6-4.1
		c-5.3-0.7-10.6-1.2-15.9-1.5L259.1,71.8L259.1,71.8z M228,73c5.2-0.6,10.3-1.1,15.5-1.2l-0.2-4.2c-5.3,0.2-10.6,0.6-15.9,1.3
		L228,73L228,73z M197.6,79.5c5-1.5,10-2.8,15.1-3.9l-0.9-4.1c-5.2,1.1-10.3,2.4-15.4,4L197.6,79.5L197.6,79.5z M168.8,91.2
		c0.1,0,0.2-0.1,0.2-0.1c4.6-2.3,9.2-4.4,13.9-6.4l-1.6-3.9c-4.8,2-9.6,4.1-14.2,6.5c-0.1,0-0.2,0.1-0.2,0.1L168.8,91.2L168.8,91.2z
		 M142.4,107.6c4.1-3.1,8.4-6,12.8-8.8l-2.2-3.6l0,0c-4.5,2.8-8.9,5.8-13.1,9L142.4,107.6L142.4,107.6z M119.3,128.5
		c3.5-3.8,7.2-7.4,11.1-10.9l-2.8-3.1c-4,3.6-7.7,7.3-11.3,11.2L119.3,128.5L119.3,128.5z M100.3,153c2.8-4.3,5.8-8.6,9-12.7
		l-3.3-2.6c-3.3,4.2-6.3,8.5-9.2,13L100.3,153L100.3,153z M85.7,180.5c2-4.8,4.2-9.5,6.7-14.1l-3.7-2c-2.5,4.7-4.8,9.5-6.8,14.4
		L85.7,180.5L85.7,180.5z M76.1,210c1.2-5.1,2.5-10.1,4.1-15l-4-1.3c-1.6,5.1-3.1,10.2-4.2,15.3L76.1,210L76.1,210z M71.8,240.8
		c0.3-5.2,0.8-10.4,1.5-15.5l-4.1-0.6c-0.7,5.3-1.2,10.5-1.5,15.9L71.8,240.8L71.8,240.8z M72.9,271.9c-0.6-5.2-1-10.3-1.2-15.5
		l-4.2,0.1c0.2,5.3,0.6,10.6,1.3,15.9L72.9,271.9L72.9,271.9z M79.4,302.3c-1.5-5-2.8-10-3.9-15.1l-4.1,0.9c1.1,5.2,2.4,10.3,4,15.4
		L79.4,302.3L79.4,302.3z M91.1,331.1c0-0.1-0.1-0.1-0.1-0.2c-2.4-4.6-4.5-9.3-6.4-14l-3.9,1.6c2,4.8,4.1,9.6,6.5,14.3
		c0,0.1,0.1,0.1,0.1,0.2L91.1,331.1L91.1,331.1z M107.6,357.5c-3.1-4.1-6-8.4-8.8-12.8l-3.6,2.2c2.8,4.5,5.8,8.9,9,13.1L107.6,357.5
		L107.6,357.5z M128.4,380.6c-3.8-3.5-7.4-7.2-10.9-11.1l-3.1,2.8c3.6,4,7.3,7.7,11.2,11.3L128.4,380.6L128.4,380.6z M152.9,399.7
		c-4.3-2.8-8.6-5.8-12.7-9l-2.6,3.3c4.2,3.3,8.5,6.3,13,9.2L152.9,399.7L152.9,399.7z M180.4,414.2c-4.8-2-9.5-4.2-14.1-6.7l-2,3.7
		c4.7,2.5,9.5,4.8,14.4,6.8L180.4,414.2L180.4,414.2z M210,423.8c-5.1-1.2-10.1-2.6-15-4.2l-1.3,4c5,1.6,10.2,3.1,15.3,4.3
		L210,423.8L210,423.8z M240.8,428.2c-5.2-0.3-10.4-0.8-15.5-1.5l-0.6,4.1c5.3,0.7,10.5,1.3,15.9,1.5L240.8,428.2L240.8,428.2z
		 M271.8,427.1c-5.2,0.6-10.3,1-15.5,1.2l0.1,4.2c5.3-0.2,10.6-0.6,15.9-1.3L271.8,427.1z M302.2,420.6c-5,1.5-10,2.8-15.1,3.9
		l0.9,4.1c5.2-1.1,10.3-2.4,15.4-4L302.2,420.6L302.2,420.6z M331.1,408.9L331.1,408.9L331.1,408.9c-4.7,2.4-9.4,4.5-14.2,6.5
		l1.6,3.9c4.9-2,9.7-4.2,14.4-6.6l0.1,0L331.1,408.9L331.1,408.9z M357.4,392.4c-4.1,3.1-8.4,6-12.8,8.8l2.2,3.6
		c4.5-2.8,8.9-5.8,13.1-9L357.4,392.4L357.4,392.4z M380.5,371.6c-3.5,3.8-7.2,7.4-11.1,10.9l2.8,3.1c4-3.6,7.7-7.3,11.4-11.2
		L380.5,371.6L380.5,371.6z M399.6,347.1c-2.8,4.3-5.8,8.6-9,12.7l3.3,2.6c3.3-4.2,6.4-8.5,9.2-13L399.6,347.1L399.6,347.1z
		 M414.2,319.7c-2,4.8-4.3,9.5-6.7,14l3.7,2c2.5-4.7,4.8-9.5,6.8-14.4L414.2,319.7z M423.8,290.1c-1.2,5.1-2.6,10.1-4.2,15l4,1.3
		c1.6-5,3.1-10.2,4.3-15.3L423.8,290.1L423.8,290.1z M428.2,259.3c-0.3,5.2-0.8,10.4-1.5,15.5l4.1,0.6c0.7-5.2,1.3-10.5,1.5-15.9
		L428.2,259.3L428.2,259.3z M427.1,228.2c0.6,5.2,1,10.3,1.2,15.5l4.2-0.1c-0.2-5.3-0.6-10.6-1.2-15.9L427.1,228.2L427.1,228.2z
		 M420.6,197.8c1.5,5,2.8,10,3.9,15.1l4.1-0.9c-1.1-5.2-2.4-10.3-4-15.4L420.6,197.8L420.6,197.8z M408.9,169
		c2.4,4.7,4.5,9.4,6.5,14.2l3.9-1.6c-2-4.9-4.2-9.7-6.6-14.5L408.9,169L408.9,169z"/>
	<circle id="XMLID_38_" class="st1" cx="250" cy="250" r="139.6"/>
	<circle id="XMLID_39_" class="st2" cx="307.8" cy="192.2" r="40.9"/>
	<circle id="XMLID_40_" class="st1" cx="389.6" cy="110.4" r="40.9"/>
	<polyline id="XMLID_41_" class="st2" points="212.2,319.8 212.2,309.5 167,309.5 167,228.2 155.3,228.2 155.3,319.8 212.2,319.8 	
		"/>
	<path id="XMLID_42_" class="st2" d="M275,319.8v-65.8h-10.4v36.3c0,13.4-7,22.2-18,22.2c-8.3,0-13.6-5-13.6-12.9v-45.6h-10.4v49.8
		c0,10.9,8.2,18,21,18c9.7,0,15.8-3.4,22-12.1v10.2L275,319.8"/>
	<path id="XMLID_45_" class="st2" d="M351.6,319.5v-7.9c-1.1,0.3-1.6,0.3-2.3,0.3c-3.6,0-5.7-1.9-5.7-5.2V270c0-11.7-8.5-18-24.7-18
		c-16,0-25.8,6.2-26.4,21.4h10.6c0.9-8,5.7-11.7,15.5-11.7c9.4,0,14.7,3.5,14.7,9.8v2.8c0,4.4-2.6,6.3-10.9,7.3
		c-14.8,1.9-17.1,2.4-21.1,4c-7.7,3.1-11.6,9-11.6,17.1c0,11.9,8.3,19,21.6,19c8.4,0,16.6-3.5,22.4-9.7c1.1,5,5.7,8.7,10.8,8.7
		C346.5,320.6,348.2,320.4,351.6,319.5 M333.2,297c0,9.4-9.5,15.5-19.7,15.5c-8.2,0-12.9-2.9-12.9-10.1c0-6.9,4.6-9.9,15.8-11.6
		c11.1-1.5,13.3-2,16.8-3.6L333.2,297"/>
</g>
</svg>
